<svg id="my-svg" width="100%" xmlns="http://www.w3.org/2000/svg" xmlns:xlink="http://www.w3.org/1999/xlink" class="classDiagram" style="max-width: 1013.17px; background-color: white;" viewBox="0 0 1013.171875 712" role="graphics-document document" aria-roledescription="class"><style>#my-svg{font-family:"trebuchet ms",verdana,arial,sans-serif;font-size:16px;fill:#333;}@keyframes edge-animation-frame{from{stroke-dashoffset:0;}}@keyframes dash{to{stroke-dashoffset:0;}}#my-svg .edge-animation-slow{stroke-dasharray:9,5!important;stroke-dashoffset:900;animation:dash 50s linear infinite;stroke-linecap:round;}#my-svg .edge-animation-fast{stroke-dasharray:9,5!important;stroke-dashoffset:900;animation:dash 20s linear infinite;stroke-linecap:round;}#my-svg .error-icon{fill:#552222;}#my-svg .error-text{fill:#552222;stroke:#552222;}#my-svg .edge-thickness-normal{stroke-width:1px;}#my-svg .edge-thickness-thick{stroke-width:3.5px;}#my-svg .edge-pattern-solid{stroke-dasharray:0;}#my-svg .edge-thickness-invisible{stroke-width:0;fill:none;}#my-svg .edge-pattern-dashed{stroke-dasharray:3;}#my-svg .edge-pattern-dotted{stroke-dasharray:2;}#my-svg .marker{fill:#333333;stroke:#333333;}#my-svg .marker.cross{stroke:#333333;}#my-svg svg{font-family:"trebuchet ms",verdana,arial,sans-serif;font-size:16px;}#my-svg p{margin:0;}#my-svg g.classGroup text{fill:#9370DB;stroke:none;font-family:"trebuchet ms",verdana,arial,sans-serif;font-size:10px;}#my-svg g.classGroup text .title{font-weight:bolder;}#my-svg .cluster-label text{fill:#333;}#my-svg .cluster-label span{color:#333;}#my-svg .cluster-label span p{background-color:transparent;}#my-svg .cluster rect{fill:#ffffde;stroke:#aaaa33;stroke-width:1px;}#my-svg .cluster text{fill:#333;}#my-svg .cluster span{color:#333;}#my-svg .nodeLabel,#my-svg .edgeLabel{color:#131300;}#my-svg .noteLabel .nodeLabel,#my-svg .noteLabel .edgeLabel{color:black;}#my-svg .edgeLabel .label rect{fill:#ECECFF;}#my-svg .label text{fill:#131300;}#my-svg .labelBkg{background:#ECECFF;}#my-svg .edgeLabel .label span{background:#ECECFF;}#my-svg .classTitle{font-weight:bolder;}#my-svg .node rect,#my-svg .node circle,#my-svg .node ellipse,#my-svg .node polygon,#my-svg .node path{fill:#ECECFF;stroke:#9370DB;stroke-width:1;}#my-svg .divider{stroke:#9370DB;stroke-width:1;}#my-svg g.clickable{cursor:pointer;}#my-svg g.classGroup rect{fill:#ECECFF;stroke:#9370DB;}#my-svg g.classGroup line{stroke:#9370DB;stroke-width:1;}#my-svg .classLabel .box{stroke:none;stroke-width:0;fill:#ECECFF;opacity:0.5;}#my-svg .classLabel .label{fill:#9370DB;font-size:10px;}#my-svg .relation{stroke:#333333;stroke-width:1;fill:none;}#my-svg .dashed-line{stroke-dasharray:3;}#my-svg .dotted-line{stroke-dasharray:1 2;}#my-svg [id$="-compositionStart"],#my-svg .composition{fill:#333333!important;stroke:#333333!important;stroke-width:1;}#my-svg [id$="-compositionEnd"],#my-svg .composition{fill:#333333!important;stroke:#333333!important;stroke-width:1;}#my-svg [id$="-dependencyStart"],#my-svg .dependency{fill:#333333!important;stroke:#333333!important;stroke-width:1;}#my-svg [id$="-dependencyEnd"],#my-svg .dependency{fill:#333333!important;stroke:#333333!important;stroke-width:1;}#my-svg [id$="-extensionStart"],#my-svg .extension{fill:transparent!important;stroke:#333333!important;stroke-width:1;}#my-svg [id$="-extensionEnd"],#my-svg .extension{fill:transparent!important;stroke:#333333!important;stroke-width:1;}#my-svg [id$="-aggregationStart"],#my-svg .aggregation{fill:transparent!important;stroke:#333333!important;stroke-width:1;}#my-svg [id$="-aggregationEnd"],#my-svg .aggregation{fill:transparent!important;stroke:#333333!important;stroke-width:1;}#my-svg [id$="-lollipopStart"],#my-svg .lollipop{fill:#ECECFF!important;stroke:#333333!important;stroke-width:1;}#my-svg [id$="-lollipopEnd"],#my-svg .lollipop{fill:#ECECFF!important;stroke:#333333!important;stroke-width:1;}#my-svg .edgeTerminals{font-size:11px;line-height:initial;}#my-svg .classTitleText{text-anchor:middle;font-size:18px;fill:#333;}#my-svg .edgeLabel[data-look="neo"]{background-color:rgba(232,232,232, 0.8);text-align:center;}#my-svg .edgeLabel[data-look="neo"] p{background-color:rgba(232,232,232, 0.8);}#my-svg .edgeLabel[data-look="neo"] rect{opacity:0.5;background-color:rgba(232,232,232, 0.8);fill:rgba(232,232,232, 0.8);}#my-svg .label-icon{display:inline-block;height:1em;overflow:visible;vertical-align:-0.125em;}#my-svg .node .label-icon path{fill:currentColor;stroke:revert;stroke-width:revert;}#my-svg .node .neo-node{stroke:#9370DB;}#my-svg [data-look="neo"].node rect,#my-svg [data-look="neo"].cluster rect,#my-svg [data-look="neo"].node polygon{stroke:#9370DB;filter:drop-shadow(1px 2px 2px rgba(185, 185, 185, 1));}#my-svg [data-look="neo"].node path{stroke:#9370DB;stroke-width:1px;}#my-svg [data-look="neo"].node .outer-path{filter:drop-shadow(1px 2px 2px rgba(185, 185, 185, 1));}#my-svg [data-look="neo"].node .neo-line path{stroke:#9370DB;filter:none;}#my-svg [data-look="neo"].node circle{stroke:#9370DB;filter:drop-shadow(1px 2px 2px rgba(185, 185, 185, 1));}#my-svg [data-look="neo"].node circle .state-start{fill:#000000;}#my-svg [data-look="neo"].icon-shape .icon{fill:#9370DB;filter:drop-shadow(1px 2px 2px rgba(185, 185, 185, 1));}#my-svg [data-look="neo"].icon-shape .icon-neo path{stroke:#9370DB;filter:drop-shadow(1px 2px 2px rgba(185, 185, 185, 1));}#my-svg :root{--mermaid-font-family:"trebuchet ms",verdana,arial,sans-serif;}</style><g><defs><marker id="my-svg_class-aggregationStart" class="marker aggregation class" refX="18" refY="7" markerWidth="190" markerHeight="240" orient="auto"><path d="M 18,7 L9,13 L1,7 L9,1 Z"/></marker></defs><defs><marker id="my-svg_class-aggregationEnd" class="marker aggregation class" refX="1" refY="7" markerWidth="20" markerHeight="28" orient="auto"><path d="M 18,7 L9,13 L1,7 L9,1 Z"/></marker></defs><defs><marker id="my-svg_class-aggregationStart-margin" class="marker aggregation class" refX="15" refY="7" markerWidth="190" markerHeight="240" orient="auto" markerUnits="userSpaceOnUse"><path d="M 18,7 L9,13 L1,7 L9,1 Z" style="stroke-width: 2;"/></marker></defs><defs><marker id="my-svg_class-aggregationEnd-margin" class="marker aggregation class" refX="1" refY="7" markerWidth="20" markerHeight="28" orient="auto" markerUnits="userSpaceOnUse"><path d="M 18,7 L9,13 L1,7 L9,1 Z" style="stroke-width: 2;"/></marker></defs><defs><marker id="my-svg_class-extensionStart" class="marker extension class" refX="18" refY="7" markerWidth="190" markerHeight="240" orient="auto" markerUnits="userSpaceOnUse"><path d="M 1,7 L18,13 V 1 Z"/></marker></defs><defs><marker id="my-svg_class-extensionEnd" class="marker extension class" refX="1" refY="7" markerWidth="20" markerHeight="28" orient="auto"><path d="M 1,1 V 13 L18,7 Z"/></marker></defs><marker id="my-svg_class-extensionStart-margin" class="marker extension class" refX="18" refY="7" markerWidth="20" markerHeight="28" orient="auto" markerUnits="userSpaceOnUse" viewBox="0 0 20 14"><polygon points="10,7 18,13 18,1" style="stroke-width: 2; stroke-dasharray: 0;"/></marker><defs><marker id="my-svg_class-extensionEnd-margin" class="marker extension class" refX="9" refY="7" markerWidth="20" markerHeight="28" orient="auto" markerUnits="userSpaceOnUse" viewBox="0 0 20 14"><polygon points="10,1 10,13 18,7" style="stroke-width: 2; stroke-dasharray: 0;"/></marker></defs><defs><marker id="my-svg_class-compositionStart" class="marker composition class" refX="18" refY="7" markerWidth="190" markerHeight="240" orient="auto"><path d="M 18,7 L9,13 L1,7 L9,1 Z"/></marker></defs><defs><marker id="my-svg_class-compositionEnd" class="marker composition class" refX="1" refY="7" markerWidth="20" markerHeight="28" orient="auto"><path d="M 18,7 L9,13 L1,7 L9,1 Z"/></marker></defs><defs><marker id="my-svg_class-compositionStart-margin" class="marker composition class" refX="15" refY="7" markerWidth="190" markerHeight="240" orient="auto" markerUnits="userSpaceOnUse"><path viewBox="0 0 15 15" d="M 18,7 L9,13 L1,7 L9,1 Z" style="stroke-width: 0;"/></marker></defs><defs><marker id="my-svg_class-compositionEnd-margin" class="marker composition class" refX="3.5" refY="7" markerWidth="20" markerHeight="28" orient="auto" markerUnits="userSpaceOnUse"><path d="M 18,7 L9,13 L1,7 L9,1 Z" style="stroke-width: 0;"/></marker></defs><defs><marker id="my-svg_class-dependencyStart" class="marker dependency class" refX="6" refY="7" markerWidth="190" markerHeight="240" orient="auto"><path d="M 5,7 L9,13 L1,7 L9,1 Z"/></marker></defs><defs><marker id="my-svg_class-dependencyEnd" class="marker dependency class" refX="13" refY="7" markerWidth="20" markerHeight="28" orient="auto"><path d="M 18,7 L9,13 L14,7 L9,1 Z"/></marker></defs><defs><marker id="my-svg_class-dependencyStart-margin" class="marker dependency class" refX="4" refY="7" markerWidth="190" markerHeight="240" orient="auto" markerUnits="userSpaceOnUse"><path d="M 5,7 L9,13 L1,7 L9,1 Z" style="stroke-width: 0;"/></marker></defs><defs><marker id="my-svg_class-dependencyEnd-margin" class="marker dependency class" refX="16" refY="7" markerWidth="20" markerHeight="28" orient="auto" markerUnits="userSpaceOnUse"><path d="M 18,7 L9,13 L14,7 L9,1 Z" style="stroke-width: 0;"/></marker></defs><defs><marker id="my-svg_class-lollipopStart" class="marker lollipop class" refX="13" refY="7" markerWidth="190" markerHeight="240" orient="auto"><circle fill="transparent" cx="7" cy="7" r="6"/></marker></defs><defs><marker id="my-svg_class-lollipopEnd" class="marker lollipop class" refX="1" refY="7" markerWidth="190" markerHeight="240" orient="auto"><circle fill="transparent" cx="7" cy="7" r="6"/></marker></defs><defs><marker id="my-svg_class-lollipopStart-margin" class="marker lollipop class" refX="13" refY="7" markerWidth="190" markerHeight="240" orient="auto" markerUnits="userSpaceOnUse"><circle fill="transparent" cx="7" cy="7" r="6" stroke-width="2"/></marker></defs><defs><marker id="my-svg_class-lollipopEnd-margin" class="marker lollipop class" refX="1" refY="7" markerWidth="190" markerHeight="240" orient="auto" markerUnits="userSpaceOnUse"><circle fill="transparent" cx="7" cy="7" r="6" stroke-width="2"/></marker></defs><g class="root"><g class="clusters"/><g class="edgePaths"><path d="M142.164,165.816L149.581,155.513C156.997,145.21,171.831,124.605,185.664,114.303C199.497,104,212.331,104,218.747,104L225.164,104" id="my-svg-id_User_Order_1" class="edge-thickness-normal edge-pattern-solid relation" style=";;;" data-edge="true" data-et="edge" data-id="id_User_Order_1" data-points="W3sieCI6MTQyLjE2NDA2MjUsInkiOjE2NS44MTU1MDg0ODk0MTAxMn0seyJ4IjoxODYuNjY0MDYyNSwieSI6MTA0fSx7IngiOjIzMS4xNjQwNjI1LCJ5IjoxMDR9XQ==" data-look="classic" marker-end="url(#my-svg_class-dependencyEnd)"/><path d="M142.164,259L149.581,259C156.997,259,171.831,259,201.277,259C230.724,259,274.784,259,319.879,259C364.974,259,411.104,259,441.621,259C472.138,259,487.042,259,494.493,259L501.945,259" id="my-svg-id_User_Product_2" class="edge-thickness-normal edge-pattern-solid relation" style=";;;" data-edge="true" data-et="edge" data-id="id_User_Product_2" data-points="W3sieCI6MTQyLjE2NDA2MjUsInkiOjI1OX0seyJ4IjoxODYuNjY0MDYyNSwieSI6MjU5fSx7IngiOjMxOC44NDM3NSwieSI6MjU5fSx7IngiOjQ1Ny4yMzQzNzUsInkiOjI1OX0seyJ4Ijo1MDcuOTQ1MzEyNSwieSI6MjU5fV0=" data-look="classic" marker-end="url(#my-svg_class-dependencyEnd)"/><path d="M352.308,200L369.796,250.167C387.284,300.333,422.259,400.667,447.541,450.833C472.823,501,488.411,501,496.206,501L504,501" id="my-svg-id_Order_SubOrder_3" class="edge-thickness-normal edge-pattern-solid relation" style=";;;" data-edge="true" data-et="edge" data-id="id_Order_SubOrder_3" data-points="W3sieCI6MzUyLjMwODQ4NTUxNjM3MjgsInkiOjIwMH0seyJ4Ijo0NTcuMjM0Mzc1LCJ5Ijo1MDF9LHsieCI6NTEwLCJ5Ijo1MDF9XQ==" data-look="classic" marker-end="url(#my-svg_class-dependencyEnd)"/><path d="M406.523,104L414.975,104C423.427,104,440.331,104,471.318,104C502.305,104,547.375,104,593.987,104C640.599,104,688.753,104,726.364,111.711C763.974,119.422,791.043,134.843,804.577,142.554L818.111,150.265" id="my-svg-id_Order_OrderItem_4" class="edge-thickness-normal edge-pattern-solid relation" style=";;;" data-edge="true" data-et="edge" data-id="id_Order_OrderItem_4" data-points="W3sieCI6NDA2LjUyMzQzNzUsInkiOjEwNH0seyJ4Ijo0NTcuMjM0Mzc1LCJ5IjoxMDR9LHsieCI6NTkyLjQ0NTMxMjUsInkiOjEwNH0seyJ4Ijo3MzYuOTA2MjUsInkiOjEwNH0seyJ4Ijo4MjMuMzI0MjE4NzUsInkiOjE1My4yMzQ3NzI1NzAzOTQ4OH1d" data-look="classic" marker-end="url(#my-svg_class-dependencyEnd)"/><path d="M629.726,417L647.589,376.75C665.452,336.5,701.179,256,732.455,217.548C763.73,179.096,790.554,182.692,803.966,184.49L817.377,186.287" id="my-svg-id_SubOrder_OrderItem_5" class="edge-thickness-normal edge-pattern-solid relation" style=";;;" data-edge="true" data-et="edge" data-id="id_SubOrder_OrderItem_5" data-points="W3sieCI6NjI5LjcyNTU1NDQzNTQ4MzksInkiOjQxN30seyJ4Ijo3MzYuOTA2MjUsInkiOjE3NS41fSx7IngiOjgyMy4zMjQyMTg3NSwieSI6MTg3LjA4NDY1MjM2OTUwNDY4fV0=" data-look="classic" marker-end="url(#my-svg_class-dependencyEnd)"/><path d="M676.945,259L686.939,259C696.932,259,716.919,259,740.379,253.954C763.839,248.907,790.773,238.814,804.239,233.768L817.706,228.721" id="my-svg-id_Product_OrderItem_6" class="edge-thickness-normal edge-pattern-solid relation" style=";;;" data-edge="true" data-et="edge" data-id="id_Product_OrderItem_6" data-points="W3sieCI6Njc2Ljk0NTMxMjUsInkiOjI1OX0seyJ4Ijo3MzYuOTA2MjUsInkiOjI1OX0seyJ4Ijo4MjMuMzI0MjE4NzUsInkiOjIyNi42MTU2MzA4NzYxNTczOH1d" data-look="classic" marker-end="url(#my-svg_class-dependencyEnd)"/><path d="M674.891,501L685.227,501C695.563,501,716.234,501,735.754,507.659C755.274,514.319,773.642,527.637,782.826,534.297L792.01,540.956" id="my-svg-id_SubOrder_Delivery_7" class="edge-thickness-normal edge-pattern-solid relation" style=";;;" data-edge="true" data-et="edge" data-id="id_SubOrder_Delivery_7" data-points="W3sieCI6Njc0Ljg5MDYyNSwieSI6NTAxfSx7IngiOjczNi45MDYyNSwieSI6NTAxfSx7IngiOjc5Ni44NjcxODc1LCJ5Ijo1NDQuNDc4MjA5MTI1NzQ2OH1d" data-look="classic" marker-end="url(#my-svg_class-dependencyEnd)"/><path d="M104.755,355L118.406,399.167C132.058,443.333,159.361,531.667,195.042,575.833C230.724,620,274.784,620,319.879,620C364.974,620,411.104,620,456.704,620C502.305,620,547.375,620,593.987,620C640.599,620,688.753,620,721.823,620C754.893,620,772.88,620,781.874,620L790.867,620" id="my-svg-id_User_Delivery_8" class="edge-thickness-normal edge-pattern-solid relation" style=";;;" data-edge="true" data-et="edge" data-id="id_User_Delivery_8" data-points="W3sieCI6MTA0Ljc1NDgxNTE4MzUxOCwieSI6MzU1fSx7IngiOjE4Ni42NjQwNjI1LCJ5Ijo2MjB9LHsieCI6MzE4Ljg0Mzc1LCJ5Ijo2MjB9LHsieCI6NDU3LjIzNDM3NSwieSI6NjIwfSx7IngiOjU5Mi40NDUzMTI1LCJ5Ijo2MjB9LHsieCI6NzM2LjkwNjI1LCJ5Ijo2MjB9LHsieCI6Nzk2Ljg2NzE4NzUsInkiOjYyMH1d" data-look="classic" marker-end="url(#my-svg_class-dependencyEnd)"/></g><g class="edgeLabels"><g class="edgeLabel" transform="translate(186.6640625, 104)"><g class="label" data-id="id_User_Order_1" transform="translate(-19.5, -12)"><foreignObject width="39" height="24"><div xmlns="http://www.w3.org/1999/xhtml" class="labelBkg" style="display: table-cell; white-space: nowrap; line-height: 1.5; max-width: 200px; text-align: center;"><span class="edgeLabel"><p>passe</p></span></div></foreignObject></g></g><g class="edgeLabel" transform="translate(318.84375, 259)"><g class="label" data-id="id_User_Product_2" transform="translate(-17.109375, -12)"><foreignObject width="34.21875" height="24"><div xmlns="http://www.w3.org/1999/xhtml" class="labelBkg" style="display: table-cell; white-space: nowrap; line-height: 1.5; max-width: 200px; text-align: center;"><span class="edgeLabel"><p>vend</p></span></div></foreignObject></g></g><g class="edgeLabel" transform="translate(457.234375, 501)"><g class="label" data-id="id_Order_SubOrder_3" transform="translate(-15.5078125, -12)"><foreignObject width="31.015625" height="24"><div xmlns="http://www.w3.org/1999/xhtml" class="labelBkg" style="display: table-cell; white-space: nowrap; line-height: 1.5; max-width: 200px; text-align: center;"><span class="edgeLabel"><p>split</p></span></div></foreignObject></g></g><g class="edgeLabel" transform="translate(592.4453125, 104)"><g class="label" data-id="id_Order_OrderItem_4" transform="translate(-29.984375, -12)"><foreignObject width="59.96875" height="24"><div xmlns="http://www.w3.org/1999/xhtml" class="labelBkg" style="display: table-cell; white-space: nowrap; line-height: 1.5; max-width: 200px; text-align: center;"><span class="edgeLabel"><p>contient</p></span></div></foreignObject></g></g><g class="edgeLabel" transform="translate(701.00068, 256.40259)"><g class="label" data-id="id_SubOrder_OrderItem_5" transform="translate(-32.0859375, -12)"><foreignObject width="64.171875" height="24"><div xmlns="http://www.w3.org/1999/xhtml" class="labelBkg" style="display: table-cell; white-space: nowrap; line-height: 1.5; max-width: 200px; text-align: center;"><span class="edgeLabel"><p>regroupe</p></span></div></foreignObject></g></g><g class="edgeLabel" transform="translate(736.90625, 259)"><g class="label" data-id="id_Product_OrderItem_6" transform="translate(-34.9609375, -12)"><foreignObject width="69.921875" height="24"><div xmlns="http://www.w3.org/1999/xhtml" class="labelBkg" style="display: table-cell; white-space: nowrap; line-height: 1.5; max-width: 200px; text-align: center;"><span class="edgeLabel"><p>reference</p></span></div></foreignObject></g></g><g class="edgeLabel" transform="translate(736.90625, 501)"><g class="label" data-id="id_SubOrder_Delivery_7" transform="translate(-16.03125, -12)"><foreignObject width="32.0625" height="24"><div xmlns="http://www.w3.org/1999/xhtml" class="labelBkg" style="display: table-cell; white-space: nowrap; line-height: 1.5; max-width: 200px; text-align: center;"><span class="edgeLabel"><p>livre</p></span></div></foreignObject></g></g><g class="edgeLabel" transform="translate(457.234375, 620)"><g class="label" data-id="id_User_Delivery_8" transform="translate(-25.7109375, -12)"><foreignObject width="51.421875" height="24"><div xmlns="http://www.w3.org/1999/xhtml" class="labelBkg" style="display: table-cell; white-space: nowrap; line-height: 1.5; max-width: 200px; text-align: center;"><span class="edgeLabel"><p>assigne</p></span></div></foreignObject></g></g><g class="edgeTerminals" transform="translate(164.56199465297837, 160.37652188940763)"><g class="inner" transform="translate(-2.890625, -8.25)"><foreignObject width="5.78125" height="16.5" style="width: 9px; height: 12px;"><div xmlns="http://www.w3.org/1999/xhtml" style="display: table-cell; white-space: nowrap; line-height: 1.5;"><span class="edgeLabel"><p>1</p></span></div></foreignObject></g></g><g class="edgeTerminals" transform="translate(159.66406125, 274)"><g class="inner" transform="translate(-2.890625, -8.25)"><foreignObject width="5.78125" height="16.5" style="width: 9px; height: 12px;"><div xmlns="http://www.w3.org/1999/xhtml" style="display: table-cell; white-space: nowrap; line-height: 1.5;"><span class="edgeLabel"><p>1</p></span></div></foreignObject></g></g><g class="edgeTerminals" transform="translate(343.90478614610873, 221.46224409568512)"><g class="inner" transform="translate(-2.890625, -8.25)"><foreignObject width="5.78125" height="16.5" style="width: 9px; height: 12px;"><div xmlns="http://www.w3.org/1999/xhtml" style="display: table-cell; white-space: nowrap; line-height: 1.5;"><span class="edgeLabel"><p>1</p></span></div></foreignObject></g></g><g class="edgeTerminals" transform="translate(424.02343874999997, 119)"><g class="inner" transform="translate(-2.890625, -8.25)"><foreignObject width="5.78125" height="16.5" style="width: 9px; height: 12px;"><div xmlns="http://www.w3.org/1999/xhtml" style="display: table-cell; white-space: nowrap; line-height: 1.5;"><span class="edgeLabel"><p>1</p></span></div></foreignObject></g></g><g class="edgeTerminals" transform="translate(650.5349200304337, 407.0893890303767)"><g class="inner" transform="translate(-2.890625, -8.25)"><foreignObject width="5.78125" height="16.5" style="width: 9px; height: 12px;"><div xmlns="http://www.w3.org/1999/xhtml" style="display: table-cell; white-space: nowrap; line-height: 1.5;"><span class="edgeLabel"><p>1</p></span></div></foreignObject></g></g><g class="edgeTerminals" transform="translate(694.44531125, 274)"><g class="inner" transform="translate(-2.890625, -8.25)"><foreignObject width="5.78125" height="16.5" style="width: 9px; height: 12px;"><div xmlns="http://www.w3.org/1999/xhtml" style="display: table-cell; white-space: nowrap; line-height: 1.5;"><span class="edgeLabel"><p>1</p></span></div></foreignObject></g></g><g class="edgeTerminals" transform="translate(692.3906274999999, 516)"><g class="inner" transform="translate(-2.890625, -8.25)"><foreignObject width="5.78125" height="16.5" style="width: 9px; height: 12px;"><div xmlns="http://www.w3.org/1999/xhtml" style="display: table-cell; white-space: nowrap; line-height: 1.5;"><span class="edgeLabel"><p>1</p></span></div></foreignObject></g></g><g class="edgeTerminals" transform="translate(95.59164492245307, 376.14914535679685)"><g class="inner" transform="translate(-2.890625, -8.25)"><foreignObject width="5.78125" height="16.5" style="width: 9px; height: 12px;"><div xmlns="http://www.w3.org/1999/xhtml" style="display: table-cell; white-space: nowrap; line-height: 1.5;"><span class="edgeLabel"><p>1</p></span></div></foreignObject></g></g><g class="edgeTerminals" transform="translate(208.66406125, 84)"><g class="inner" transform="translate(-8.9453125, -8.25)"/><foreignObject width="17.890625" height="16.5" style="width: 36px; height: 12px;"><div xmlns="http://www.w3.org/1999/xhtml" style="display: table-cell; white-space: nowrap; line-height: 1.5;"><span class="edgeLabel"><p>0..*</p></span></div></foreignObject></g><g class="edgeTerminals" transform="translate(485.44531125000003, 239)"><g class="inner" transform="translate(-8.9453125, -8.25)"/><foreignObject width="17.890625" height="16.5" style="width: 36px; height: 12px;"><div xmlns="http://www.w3.org/1999/xhtml" style="display: table-cell; white-space: nowrap; line-height: 1.5;"><span class="edgeLabel"><p>0..*</p></span></div></foreignObject></g><g class="edgeTerminals" transform="translate(487.5, 481)"><g class="inner" transform="translate(-8.9453125, -8.25)"/><foreignObject width="17.890625" height="16.5" style="width: 36px; height: 12px;"><div xmlns="http://www.w3.org/1999/xhtml" style="display: table-cell; white-space: nowrap; line-height: 1.5;"><span class="edgeLabel"><p>1..*</p></span></div></foreignObject></g><g class="edgeTerminals" transform="translate(810.544213006187, 126.53865453869847)"><g class="inner" transform="translate(-8.9453125, -8.25)"/><foreignObject width="17.890625" height="16.5" style="width: 36px; height: 12px;"><div xmlns="http://www.w3.org/1999/xhtml" style="display: table-cell; white-space: nowrap; line-height: 1.5;"><span class="edgeLabel"><p>1..*</p></span></div></foreignObject></g><g class="edgeTerminals" transform="translate(802.9723472685926, 164.89249940983095)"><g class="inner" transform="translate(-8.9453125, -8.25)"/><foreignObject width="17.890625" height="16.5" style="width: 36px; height: 12px;"><div xmlns="http://www.w3.org/1999/xhtml" style="display: table-cell; white-space: nowrap; line-height: 1.5;"><span class="edgeLabel"><p>0..*</p></span></div></foreignObject></g><g class="edgeTerminals" transform="translate(796.6734016115925, 213.71043736476926)"><g class="inner" transform="translate(-8.9453125, -8.25)"/><foreignObject width="17.890625" height="16.5" style="width: 36px; height: 12px;"><div xmlns="http://www.w3.org/1999/xhtml" style="display: table-cell; white-space: nowrap; line-height: 1.5;"><span class="edgeLabel"><p>0..*</p></span></div></foreignObject></g><g class="edgeTerminals" transform="translate(786.5051198890594, 517.0617369454183)"><g class="inner" transform="translate(-9.8125, -8.25)"/><foreignObject width="19.625" height="16.5" style="width: 36px; height: 12px;"><div xmlns="http://www.w3.org/1999/xhtml" style="display: table-cell; white-space: nowrap; line-height: 1.5;"><span class="edgeLabel"><p>0..1</p></span></div></foreignObject></g><g class="edgeTerminals" transform="translate(774.36718875, 600)"><g class="inner" transform="translate(-8.9453125, -8.25)"/><foreignObject width="17.890625" height="16.5" style="width: 36px; height: 12px;"><div xmlns="http://www.w3.org/1999/xhtml" style="display: table-cell; white-space: nowrap; line-height: 1.5;"><span class="edgeLabel"><p>0..*</p></span></div></foreignObject></g></g><g class="nodes"><g class="node default" id="my-svg-classId-User-0" data-look="classic" transform="translate(75.08203125, 259)"><g class="basic label-container outer-path"><path d="M-67.08203125 -96 L67.08203125 -96 L67.08203125 96 L-67.08203125 96" stroke="none" stroke-width="0" fill="#ECECFF" style=""/><path d="M-67.08203125 -96 C-19.28928980339675 -96, 28.503451643206503 -96, 67.08203125 -96 M-67.08203125 -96 C-39.74150681546167 -96, -12.400982380923338 -96, 67.08203125 -96 M67.08203125 -96 C67.08203125 -28.157864530539996, 67.08203125 39.68427093892001, 67.08203125 96 M67.08203125 -96 C67.08203125 -51.19143850374522, 67.08203125 -6.3828770074904355, 67.08203125 96 M67.08203125 96 C18.400438679902656 96, -30.281153890194688 96, -67.08203125 96 M67.08203125 96 C39.88315212103113 96, 12.684272992062262 96, -67.08203125 96 M-67.08203125 96 C-67.08203125 51.50560459171705, -67.08203125 7.011209183434104, -67.08203125 -96 M-67.08203125 96 C-67.08203125 29.731746414206285, -67.08203125 -36.53650717158743, -67.08203125 -96" stroke="#9370DB" stroke-width="1.3" fill="none" stroke-dasharray="0 0" style=""/></g><g class="annotation-group text" transform="translate(0, -72)"/><g class="label-group text" transform="translate(-16.8828125, -72)"><g class="label" style="font-weight: bolder" transform="translate(0,-12)"><foreignObject width="33.765625" height="24"><div xmlns="http://www.w3.org/1999/xhtml" style="display: table-cell; white-space: nowrap; line-height: 1.5; max-width: 82px; text-align: center;"><span class="nodeLabel markdown-node-label" style=""><p>User</p></span></div></foreignObject></g></g><g class="members-group text" transform="translate(-55.08203125, -24)"><g class="label" style="" transform="translate(0,-12)"><foreignObject width="46.34375" height="24"><div xmlns="http://www.w3.org/1999/xhtml" style="display: table-cell; white-space: nowrap; line-height: 1.5; max-width: 99px; text-align: center;"><span class="nodeLabel markdown-node-label" style=""><p>+int id</p></span></div></foreignObject></g><g class="label" style="" transform="translate(0,12)"><foreignObject width="92.75" height="24"><div xmlns="http://www.w3.org/1999/xhtml" style="display: table-cell; white-space: nowrap; line-height: 1.5; max-width: 140px; text-align: center;"><span class="nodeLabel markdown-node-label" style=""><p>+string name</p></span></div></foreignObject></g><g class="label" style="" transform="translate(0,36)"><foreignObject width="93.28125" height="24"><div xmlns="http://www.w3.org/1999/xhtml" style="display: table-cell; white-space: nowrap; line-height: 1.5; max-width: 141px; text-align: center;"><span class="nodeLabel markdown-node-label" style=""><p>+string email</p></span></div></foreignObject></g><g class="label" style="" transform="translate(0,60)"><foreignObject width="81.84375" height="24"><div xmlns="http://www.w3.org/1999/xhtml" style="display: table-cell; white-space: nowrap; line-height: 1.5; max-width: 130px; text-align: center;"><span class="nodeLabel markdown-node-label" style=""><p>+string role</p></span></div></foreignObject></g></g><g class="methods-group text" transform="translate(-55.08203125, 96)"/><g class="divider" style=""><path d="M-67.08203125 -48 C-27.584927020741553 -47.999705605931325, 11.912177208516894 -47.99941121186265, 67.08203125 -47.999 M-67.08203125 -48 C-19.17143813322862 -47.99964289548018, 28.73915498354276 -47.99928579096035, 67.08203125 -47.999" stroke="#9370DB" stroke-width="1.3" fill="none" stroke-dasharray="0 0" style=""/></g><g class="divider" style=""><path d="M-67.08203125 72 C-28.412956796410597 72.00028822229838, 10.256117657178805 72.00057644459676, 67.08203125 72.001 M-67.08203125 72 C-21.189853995836586 72.00034206013443, 24.702323258326828 72.00068412026886, 67.08203125 72.001" stroke="#9370DB" stroke-width="1.3" fill="none" stroke-dasharray="0 0" style=""/></g></g><g class="node default" id="my-svg-classId-Product-1" data-look="classic" transform="translate(592.4453125, 259)"><g class="basic label-container outer-path"><path d="M-84.5 -108 L84.5 -108 L84.5 108 L-84.5 108" stroke="none" stroke-width="0" fill="#ECECFF" style=""/><path d="M-84.5 -108 C-17.784029540610646 -108, 48.93194091877871 -108, 84.5 -108 M-84.5 -108 C-32.078511810006425 -108, 20.34297637998715 -108, 84.5 -108 M84.5 -108 C84.5 -45.521091362878856, 84.5 16.957817274242288, 84.5 108 M84.5 -108 C84.5 -52.84444324754354, 84.5 2.3111135049129246, 84.5 108 M84.5 108 C46.49079666747125 108, 8.481593334942502 108, -84.5 108 M84.5 108 C23.839114106751985 108, -36.82177178649603 108, -84.5 108 M-84.5 108 C-84.5 29.18968825951434, -84.5 -49.62062348097132, -84.5 -108 M-84.5 108 C-84.5 47.151525893281644, -84.5 -13.696948213436713, -84.5 -108" stroke="#9370DB" stroke-width="1.3" fill="none" stroke-dasharray="0 0" style=""/></g><g class="annotation-group text" transform="translate(0, -84)"/><g class="label-group text" transform="translate(-29.28125, -84)"><g class="label" style="font-weight: bolder" transform="translate(0,-12)"><foreignObject width="58.5625" height="24"><div xmlns="http://www.w3.org/1999/xhtml" style="display: table-cell; white-space: nowrap; line-height: 1.5; max-width: 101px; text-align: center;"><span class="nodeLabel markdown-node-label" style=""><p>Product</p></span></div></foreignObject></g></g><g class="members-group text" transform="translate(-72.5, -36)"><g class="label" style="" transform="translate(0,-12)"><foreignObject width="46.34375" height="24"><div xmlns="http://www.w3.org/1999/xhtml" style="display: table-cell; white-space: nowrap; line-height: 1.5; max-width: 99px; text-align: center;"><span class="nodeLabel markdown-node-label" style=""><p>+int id</p></span></div></foreignObject></g><g class="label" style="" transform="translate(0,12)"><foreignObject width="92.75" height="24"><div xmlns="http://www.w3.org/1999/xhtml" style="display: table-cell; white-space: nowrap; line-height: 1.5; max-width: 140px; text-align: center;"><span class="nodeLabel markdown-node-label" style=""><p>+string name</p></span></div></foreignObject></g><g class="label" style="" transform="translate(0,36)"><foreignObject width="83.53125" height="24"><div xmlns="http://www.w3.org/1999/xhtml" style="display: table-cell; white-space: nowrap; line-height: 1.5; max-width: 130px; text-align: center;"><span class="nodeLabel markdown-node-label" style=""><p>+float price</p></span></div></foreignObject></g><g class="label" style="" transform="translate(0,60)"><foreignObject width="70.265625" height="24"><div xmlns="http://www.w3.org/1999/xhtml" style="display: table-cell; white-space: nowrap; line-height: 1.5; max-width: 120px; text-align: center;"><span class="nodeLabel markdown-node-label" style=""><p>+int stock</p></span></div></foreignObject></g><g class="label" style="" transform="translate(0,84)"><foreignObject width="115.71875" height="24"><div xmlns="http://www.w3.org/1999/xhtml" style="display: table-cell; white-space: nowrap; line-height: 1.5; max-width: 161px; text-align: center;"><span class="nodeLabel markdown-node-label" style=""><p>+string category</p></span></div></foreignObject></g></g><g class="methods-group text" transform="translate(-72.5, 108)"/><g class="divider" style=""><path d="M-84.5 -60 C-21.43789975864572 -59.99962685147786, 41.62420048270856 -59.99925370295573, 84.5 -59.999 M-84.5 -60 C-22.76422148414175 -59.99963469953541, 38.9715570317165 -59.99926939907082, 84.5 -59.999" stroke="#9370DB" stroke-width="1.3" fill="none" stroke-dasharray="0 0" style=""/></g><g class="divider" style=""><path d="M-84.5 84 C-22.721989170124196 84.00036555035994, 39.05602165975161 84.00073110071989, 84.5 84.001 M-84.5 84 C-38.21273974938518 84.00027388911391, 8.074520501229642 84.00054777822783, 84.5 84.001" stroke="#9370DB" stroke-width="1.3" fill="none" stroke-dasharray="0 0" style=""/></g></g><g class="node default" id="my-svg-classId-Order-2" data-look="classic" transform="translate(318.84375, 104)"><g class="basic label-container outer-path"><path d="M-87.6796875 -96 L87.6796875 -96 L87.6796875 96 L-87.6796875 96" stroke="none" stroke-width="0" fill="#ECECFF" style=""/><path d="M-87.6796875 -96 C-17.539554194749527 -96, 52.600579110500945 -96, 87.6796875 -96 M-87.6796875 -96 C-46.296237861520105 -96, -4.912788223040209 -96, 87.6796875 -96 M87.6796875 -96 C87.6796875 -31.16639786229824, 87.6796875 33.66720427540352, 87.6796875 96 M87.6796875 -96 C87.6796875 -19.223829080050038, 87.6796875 57.552341839899924, 87.6796875 96 M87.6796875 96 C31.315857743221862 96, -25.047972013556276 96, -87.6796875 96 M87.6796875 96 C49.034204700738414 96, 10.388721901476828 96, -87.6796875 96 M-87.6796875 96 C-87.6796875 30.00971728504321, -87.6796875 -35.98056542991358, -87.6796875 -96 M-87.6796875 96 C-87.6796875 41.24695095728661, -87.6796875 -13.506098085426785, -87.6796875 -96" stroke="#9370DB" stroke-width="1.3" fill="none" stroke-dasharray="0 0" style=""/></g><g class="annotation-group text" transform="translate(0, -72)"/><g class="label-group text" transform="translate(-21.703125, -72)"><g class="label" style="font-weight: bolder" transform="translate(0,-12)"><foreignObject width="43.40625" height="24"><div xmlns="http://www.w3.org/1999/xhtml" style="display: table-cell; white-space: nowrap; line-height: 1.5; max-width: 88px; text-align: center;"><span class="nodeLabel markdown-node-label" style=""><p>Order</p></span></div></foreignObject></g></g><g class="members-group text" transform="translate(-75.6796875, -24)"><g class="label" style="" transform="translate(0,-12)"><foreignObject width="46.34375" height="24"><div xmlns="http://www.w3.org/1999/xhtml" style="display: table-cell; white-space: nowrap; line-height: 1.5; max-width: 99px; text-align: center;"><span class="nodeLabel markdown-node-label" style=""><p>+int id</p></span></div></foreignObject></g><g class="label" style="" transform="translate(0,12)"><foreignObject width="81.578125" height="24"><div xmlns="http://www.w3.org/1999/xhtml" style="display: table-cell; white-space: nowrap; line-height: 1.5; max-width: 127px; text-align: center;"><span class="nodeLabel markdown-node-label" style=""><p>+float total</p></span></div></foreignObject></g><g class="label" style="" transform="translate(0,36)"><foreignObject width="96.375" height="24"><div xmlns="http://www.w3.org/1999/xhtml" style="display: table-cell; white-space: nowrap; line-height: 1.5; max-width: 141px; text-align: center;"><span class="nodeLabel markdown-node-label" style=""><p>+string status</p></span></div></foreignObject></g><g class="label" style="" transform="translate(0,60)"><foreignObject width="129.65625" height="24"><div xmlns="http://www.w3.org/1999/xhtml" style="display: table-cell; white-space: nowrap; line-height: 1.5; max-width: 176px; text-align: center;"><span class="nodeLabel markdown-node-label" style=""><p>+float commission</p></span></div></foreignObject></g></g><g class="methods-group text" transform="translate(-75.6796875, 96)"/><g class="divider" style=""><path d="M-87.6796875 -48 C-47.324716602220434 -47.99976987274905, -6.969745704440868 -47.99953974549809, 87.6796875 -47.999 M-87.6796875 -48 C-24.001821711652482 -47.9996368721901, 39.676044076695035 -47.99927374438021, 87.6796875 -47.999" stroke="#9370DB" stroke-width="1.3" fill="none" stroke-dasharray="0 0" style=""/></g><g class="divider" style=""><path d="M-87.6796875 72 C-40.44450149509424 72.00026936219409, 6.790684509811527 72.00053872438819, 87.6796875 72.001 M-87.6796875 72 C-22.49920142209318 72.00037169661489, 42.68128465581364 72.0007433932298, 87.6796875 72.001" stroke="#9370DB" stroke-width="1.3" fill="none" stroke-dasharray="0 0" style=""/></g></g><g class="node default" id="my-svg-classId-SubOrder-3" data-look="classic" transform="translate(592.4453125, 501)"><g class="basic label-container outer-path"><path d="M-82.4453125 -84 L82.4453125 -84 L82.4453125 84 L-82.4453125 84" stroke="none" stroke-width="0" fill="#ECECFF" style=""/><path d="M-82.4453125 -84 C-49.31223821833815 -84, -16.179163936676304 -84, 82.4453125 -84 M-82.4453125 -84 C-47.16906263162972 -84, -11.892812763259442 -84, 82.4453125 -84 M82.4453125 -84 C82.4453125 -19.785043522848923, 82.4453125 44.429912954302154, 82.4453125 84 M82.4453125 -84 C82.4453125 -42.523721787073605, 82.4453125 -1.0474435741472092, 82.4453125 84 M82.4453125 84 C26.755567100249216 84, -28.934178299501568 84, -82.4453125 84 M82.4453125 84 C16.850464462014045 84, -48.74438357597191 84, -82.4453125 84 M-82.4453125 84 C-82.4453125 23.966067446367774, -82.4453125 -36.06786510726445, -82.4453125 -84 M-82.4453125 84 C-82.4453125 31.002333563994924, -82.4453125 -21.995332872010152, -82.4453125 -84" stroke="#9370DB" stroke-width="1.3" fill="none" stroke-dasharray="0 0" style=""/></g><g class="annotation-group text" transform="translate(0, -60)"/><g class="label-group text" transform="translate(-35.171875, -60)"><g class="label" style="font-weight: bolder" transform="translate(0,-12)"><foreignObject width="70.34375" height="24"><div xmlns="http://www.w3.org/1999/xhtml" style="display: table-cell; white-space: nowrap; line-height: 1.5; max-width: 113px; text-align: center;"><span class="nodeLabel markdown-node-label" style=""><p>SubOrder</p></span></div></foreignObject></g></g><g class="members-group text" transform="translate(-70.4453125, -12)"><g class="label" style="" transform="translate(0,-12)"><foreignObject width="46.34375" height="24"><div xmlns="http://www.w3.org/1999/xhtml" style="display: table-cell; white-space: nowrap; line-height: 1.5; max-width: 99px; text-align: center;"><span class="nodeLabel markdown-node-label" style=""><p>+int id</p></span></div></foreignObject></g><g class="label" style="" transform="translate(0,12)"><foreignObject width="105.71875" height="24"><div xmlns="http://www.w3.org/1999/xhtml" style="display: table-cell; white-space: nowrap; line-height: 1.5; max-width: 149px; text-align: center;"><span class="nodeLabel markdown-node-label" style=""><p>+float subtotal</p></span></div></foreignObject></g><g class="label" style="" transform="translate(0,36)"><foreignObject width="96.375" height="24"><div xmlns="http://www.w3.org/1999/xhtml" style="display: table-cell; white-space: nowrap; line-height: 1.5; max-width: 141px; text-align: center;"><span class="nodeLabel markdown-node-label" style=""><p>+string status</p></span></div></foreignObject></g></g><g class="methods-group text" transform="translate(-70.4453125, 84)"/><g class="divider" style=""><path d="M-82.4453125 -36 C-18.68819476528745 -35.9996133369151, 45.0689229694251 -35.99922667383019, 82.4453125 -35.999 M-82.4453125 -36 C-46.85568198693707 -35.99978416219532, -11.266051473874143 -35.99956832439063, 82.4453125 -35.999" stroke="#9370DB" stroke-width="1.3" fill="none" stroke-dasharray="0 0" style=""/></g><g class="divider" style=""><path d="M-82.4453125 60 C-35.48167689908932 60.000284816893625, 11.481958701821355 60.00056963378726, 82.4453125 60.001 M-82.4453125 60 C-32.02505728321855 60.000305779999415, 18.395197933562898 60.00061155999884, 82.4453125 60.001" stroke="#9370DB" stroke-width="1.3" fill="none" stroke-dasharray="0 0" style=""/></g></g><g class="node default" id="my-svg-classId-OrderItem-4" data-look="classic" transform="translate(901.01953125, 197.5)"><g class="basic label-container outer-path"><path d="M-77.6953125 -84 L77.6953125 -84 L77.6953125 84 L-77.6953125 84" stroke="none" stroke-width="0" fill="#ECECFF" style=""/><path d="M-77.6953125 -84 C-21.608232507472493 -84, 34.47884748505501 -84, 77.6953125 -84 M-77.6953125 -84 C-17.187018973494467 -84, 43.321274553011065 -84, 77.6953125 -84 M77.6953125 -84 C77.6953125 -28.131576216091673, 77.6953125 27.736847567816653, 77.6953125 84 M77.6953125 -84 C77.6953125 -46.05114905908568, 77.6953125 -8.102298118171362, 77.6953125 84 M77.6953125 84 C41.13323277629874 84, 4.571153052597481 84, -77.6953125 84 M77.6953125 84 C45.89945794590517 84, 14.103603391810339 84, -77.6953125 84 M-77.6953125 84 C-77.6953125 39.67968305349047, -77.6953125 -4.640633893019057, -77.6953125 -84 M-77.6953125 84 C-77.6953125 16.993636101736698, -77.6953125 -50.012727796526605, -77.6953125 -84" stroke="#9370DB" stroke-width="1.3" fill="none" stroke-dasharray="0 0" style=""/></g><g class="annotation-group text" transform="translate(0, -60)"/><g class="label-group text" transform="translate(-38.578125, -60)"><g class="label" style="font-weight: bolder" transform="translate(0,-12)"><foreignObject width="77.15625" height="24"><div xmlns="http://www.w3.org/1999/xhtml" style="display: table-cell; white-space: nowrap; line-height: 1.5; max-width: 117px; text-align: center;"><span class="nodeLabel markdown-node-label" style=""><p>OrderItem</p></span></div></foreignObject></g></g><g class="members-group text" transform="translate(-65.6953125, -12)"><g class="label" style="" transform="translate(0,-12)"><foreignObject width="46.34375" height="24"><div xmlns="http://www.w3.org/1999/xhtml" style="display: table-cell; white-space: nowrap; line-height: 1.5; max-width: 99px; text-align: center;"><span class="nodeLabel markdown-node-label" style=""><p>+int id</p></span></div></foreignObject></g><g class="label" style="" transform="translate(0,12)"><foreignObject width="92.8125" height="24"><div xmlns="http://www.w3.org/1999/xhtml" style="display: table-cell; white-space: nowrap; line-height: 1.5; max-width: 139px; text-align: center;"><span class="nodeLabel markdown-node-label" style=""><p>+int quantity</p></span></div></foreignObject></g><g class="label" style="" transform="translate(0,36)"><foreignObject width="83.53125" height="24"><div xmlns="http://www.w3.org/1999/xhtml" style="display: table-cell; white-space: nowrap; line-height: 1.5; max-width: 130px; text-align: center;"><span class="nodeLabel markdown-node-label" style=""><p>+float price</p></span></div></foreignObject></g></g><g class="methods-group text" transform="translate(-65.6953125, 84)"/><g class="divider" style=""><path d="M-77.6953125 -36 C-42.92548947138289 -35.99977624246618, -8.155666442765778 -35.999552484932366, 77.6953125 -35.999 M-77.6953125 -36 C-44.50314923348298 -35.99978639532941, -11.310985966965958 -35.99957279065881, 77.6953125 -35.999" stroke="#9370DB" stroke-width="1.3" fill="none" stroke-dasharray="0 0" style=""/></g><g class="divider" style=""><path d="M-77.6953125 60 C-20.310941277506572 60.000369291076744, 37.073429944986856 60.00073858215349, 77.6953125 60.001 M-77.6953125 60 C-40.965057321972026 60.00023637368842, -4.2348021439440515 60.00047274737685, 77.6953125 60.001" stroke="#9370DB" stroke-width="1.3" fill="none" stroke-dasharray="0 0" style=""/></g></g><g class="node default" id="my-svg-classId-Delivery-5" data-look="classic" transform="translate(901.01953125, 620)"><g class="basic label-container outer-path"><path d="M-104.15234375 -84 L104.15234375 -84 L104.15234375 84 L-104.15234375 84" stroke="none" stroke-width="0" fill="#ECECFF" style=""/><path d="M-104.15234375 -84 C-47.79692442332581 -84, 8.558494903348375 -84, 104.15234375 -84 M-104.15234375 -84 C-43.04370746064017 -84, 18.06492882871966 -84, 104.15234375 -84 M104.15234375 -84 C104.15234375 -47.49397863526929, 104.15234375 -10.987957270538587, 104.15234375 84 M104.15234375 -84 C104.15234375 -39.290230086708064, 104.15234375 5.419539826583872, 104.15234375 84 M104.15234375 84 C47.05335209840079 84, -10.045639553198427 84, -104.15234375 84 M104.15234375 84 C29.579386566019494 84, -44.99357061796101 84, -104.15234375 84 M-104.15234375 84 C-104.15234375 19.204030099322736, -104.15234375 -45.59193980135453, -104.15234375 -84 M-104.15234375 84 C-104.15234375 18.316783980632295, -104.15234375 -47.36643203873541, -104.15234375 -84" stroke="#9370DB" stroke-width="1.3" fill="none" stroke-dasharray="0 0" style=""/></g><g class="annotation-group text" transform="translate(0, -60)"/><g class="label-group text" transform="translate(-30.9921875, -60)"><g class="label" style="font-weight: bolder" transform="translate(0,-12)"><foreignObject width="61.984375" height="24"><div xmlns="http://www.w3.org/1999/xhtml" style="display: table-cell; white-space: nowrap; line-height: 1.5; max-width: 108px; text-align: center;"><span class="nodeLabel markdown-node-label" style=""><p>Delivery</p></span></div></foreignObject></g></g><g class="members-group text" transform="translate(-92.15234375, -12)"><g class="label" style="" transform="translate(0,-12)"><foreignObject width="46.34375" height="24"><div xmlns="http://www.w3.org/1999/xhtml" style="display: table-cell; white-space: nowrap; line-height: 1.5; max-width: 99px; text-align: center;"><span class="nodeLabel markdown-node-label" style=""><p>+int id</p></span></div></foreignObject></g><g class="label" style="" transform="translate(0,12)"><foreignObject width="96.375" height="24"><div xmlns="http://www.w3.org/1999/xhtml" style="display: table-cell; white-space: nowrap; line-height: 1.5; max-width: 141px; text-align: center;"><span class="nodeLabel markdown-node-label" style=""><p>+string status</p></span></div></foreignObject></g><g class="label" style="" transform="translate(0,36)"><foreignObject width="153.3125" height="24"><div xmlns="http://www.w3.org/1999/xhtml" style="display: table-cell; white-space: nowrap; line-height: 1.5; max-width: 198px; text-align: center;"><span class="nodeLabel markdown-node-label" style=""><p>+string trackingToken</p></span></div></foreignObject></g></g><g class="methods-group text" transform="translate(-92.15234375, 84)"/><g class="divider" style=""><path d="M-104.15234375 -36 C-26.68861457887627 -35.99962812296689, 50.77511459224746 -35.99925624593377, 104.15234375 -35.999 M-104.15234375 -36 C-27.671719074705862 -35.99963284251741, 48.808905600588275 -35.999265685034814, 104.15234375 -35.999" stroke="#9370DB" stroke-width="1.3" fill="none" stroke-dasharray="0 0" style=""/></g><g class="divider" style=""><path d="M-104.15234375 60 C-26.514402479823303 60.00037271336618, 51.12353879035339 60.000745426732365, 104.15234375 60.001 M-104.15234375 60 C-49.77930774724999 60.00026102646395, 4.593728255500025 60.000522052927906, 104.15234375 60.001" stroke="#9370DB" stroke-width="1.3" fill="none" stroke-dasharray="0 0" style=""/></g></g></g></g></g><defs><filter id="my-svg-drop-shadow" height="130%" width="130%"><feDropShadow dx="4" dy="4" stdDeviation="0" flood-opacity="0.06" flood-color="#000000"/></filter></defs><defs><filter id="my-svg-drop-shadow-small" height="150%" width="150%"><feDropShadow dx="2" dy="2" stdDeviation="0" flood-opacity="0.06" flood-color="#000000"/></filter></defs></svg>